<?xml version="1.0" standalone="no"?><!DOCTYPE svg PUBLIC "-//W3C//DTD SVG 1.1//EN" "http://www.w3.org/Graphics/SVG/1.1/DTD/svg11.dtd"><svg width="100%" height="100%" viewBox="0 0 383 383" version="1.1" xmlns="http://www.w3.org/2000/svg" xmlns:xlink="http://www.w3.org/1999/xlink" xml:space="preserve" style="fill-rule:evenodd;clip-rule:evenodd;stroke-linejoin:round;stroke-miterlimit:1.41421;"><g><g><g><path d="M220.117,177.554c2.01,-0.942 4.26,-1.093 6.46,-1.063c23.71,0.07 47.42,-0.02 71.14,0.04c5.55,-0.08 10.74,4.61 10.9,10.242c0.52,9.02 -0.32,18.059 0.05,27.068c-0.09,5.753 -5.3,10.623 -11,10.513c-24.02,0.07 -48.05,0.01 -72.08,0.03c-5.89,0.421 -11.76,-4.409 -11.74,-10.462c-0.08,-8.719 -0.02,-17.438 -0.03,-26.146c-0.21,-4.29 2.43,-8.439 6.3,-10.222l0,0ZM225.397,188.277c23.92,0 47.84,0 71.75,0c0,8.107 0,16.214 0,24.332c-23.91,-0.01 -47.83,-0.01 -71.74,0c-0.01,-8.118 0,-16.225 -0.01,-24.332l0,0Z" style="fill:#47bd96;"/><path d="M237.247,193.658c4.77,-2.114 10.83,1.994 10.1,7.296c0.11,6.073 -8.49,9.109 -12.36,4.58c-3.69,-3.358 -2.25,-9.972 2.26,-11.876Z" style="fill:#47bd96;fill-rule:nonzero;"/><path d="M259.127,193.638c4.76,-2.074 10.76,1.984 10.12,7.256c0.14,6.053 -8.41,9.189 -12.34,4.71c-3.68,-3.397 -2.32,-10.032 2.22,-11.966Z" style="fill:#47bd96;fill-rule:nonzero;"/><path d="M281.217,193.578c4.75,-1.934 10.5,2.125 9.93,7.306c-0.05,5.391 -6.74,8.698 -11.13,5.742c-4.95,-2.836 -4.14,-11.084 1.2,-13.048l0,0Z" style="fill:#47bd96;fill-rule:nonzero;"/></g><g><path d="M292.767,87.908c2.075,4.81 -2.074,10.65 -7.335,10.07c-5.582,-0.14 -8.91,-7.48 -5.232,-11.68c3.047,-4.4 10.723,-3.42 12.567,1.61Z" style="fill:#47bd96;fill-rule:nonzero;"/><path d="M292.807,109.928c2.426,5.61 -3.848,12 -9.49,9.43c-5.281,-1.72 -6.263,-9.72 -1.603,-12.7c3.617,-2.93 9.57,-1.04 11.093,3.27l0,0Z" style="fill:#47bd96;fill-rule:nonzero;"/><path d="M292.857,131.898c2.245,5.53 -3.818,11.76 -9.36,9.43c-5.351,-1.62 -6.534,-9.67 -1.904,-12.74c3.678,-2.96 9.791,-1.16 11.264,3.31Z" style="fill:#47bd96;fill-rule:nonzero;"/></g><path d="M273.098,305.745c-1.55,1.684 -3.93,1.744 -6.05,1.744c-33.03,-0.06 -66.06,0.04 -99.09,-0.05c-3.64,0.12 -6.87,-3.036 -7.26,-6.584c-0.21,-2.515 -0.11,-5.051 -0.14,-7.586c-2.56,0 -5.14,0 -7.72,-0.01c-2.53,6.914 -8.44,12.226 -15.68,13.749c-5.63,0.501 -11.65,-0.762 -15.9,-4.71c-5.31,-4.47 -7.8,-11.936 -6.34,-18.72c1.21,-6.053 5.49,-11.415 11.15,-13.87c6.73,-3.036 15.23,-1.894 20.76,3.087c2.86,2.385 4.55,5.772 6.05,9.099c2.56,0.01 5.12,0.01 7.67,0c0.08,-3.157 -0.14,-6.333 0.24,-9.48c0.85,-3.608 4.38,-6.133 8.03,-6.043c32.74,-0.05 65.49,0.01 98.23,-0.03c3.64,-0.271 7.41,1.934 8.51,5.482c0.52,2.866 0.26,5.782 0.3,8.668c11.05,0.662 22.14,0.03 33.2,0.341c4.1,-0.211 6.88,5.131 4.64,8.468c-1,2.135 -3.38,3.177 -5.65,3.057c-10.63,0.06 -21.26,-0.01 -31.89,0.02c-0.78,4.449 1.12,10.212 -3.06,13.368l0,0ZM172.328,296.065l92.05,0c-0.04,-5.973 -0.1,-11.946 0.01,-17.919c-30.69,-0.01 -61.37,0 -92.05,0c-0.004,2.24 -0.005,4.48 -0.005,6.72l0,4.479c0,2.24 -0.001,4.48 -0.005,6.72l0,0ZM138.468,293.94c-4.71,3.728 -12.64,-0.21 -12.21,-6.293c-0.64,-6.214 7.46,-10.172 12.24,-6.534c4.39,2.856 4.35,9.991 -0.03,12.827Z" style="fill:#47bd96;"/><path d="M58.77,355.898c-2.73,7.376 -9.58,13.7 -17.77,13.53c-5.59,0.531 -11.29,-1.624 -15.1,-5.773c-6.27,-6.313 -7.19,-17.036 -2.15,-24.362c5.28,-8.378 17.28,-11.174 25.78,-6.193c4.48,2.294 7.34,6.664 9.21,11.194c44.55,-0.041 239.11,0.03 283.66,-0.031c-0.03,-45.016 0.04,-239.023 -0.03,-284.029c-6.02,-2.095 -10.63,-5.833 -12.97,-11.716c-1.995,-5.014 -2.217,-8.593 -0.12,-13.917c2.25,-5.713 5.6,-9.844 11.59,-11.748c8.84,-3.327 19.61,1.263 23.62,9.761c3.8,7.246 2.23,16.706 -3.48,22.499c-2.29,2.365 -4.29,3.838 -7.27,5.121c-0.07,47.111 0.04,243.212 -0.04,290.323c0.28,3.067 -2.71,5.502 -5.62,5.331c-46.44,0.041 -242.87,0.02 -289.31,0.01l0,0ZM353.12,46.274c-1.46,2.014 -3.94,2.595 -6.16,3.367c-3.5,-1.022 -7.63,-3.297 -7.54,-7.486c-1.02,-5.632 5.5,-10.433 10.61,-8.068c4.78,1.674 6.47,8.469 3.09,12.187ZM43.57,357.091c-5.09,3.077 -12.3,-1.744 -11.32,-7.646c0.04,-6.154 8.66,-9.661 12.9,-5.101c4.16,3.307 3.13,10.472 -1.58,12.747l0,0Z" style="fill:#47bd96;"/></g></g></svg>