<svg xmlns="http://www.w3.org/2000/svg" xmlns:xlink="http://www.w3.org/1999/xlink" version="1.1" id="Layer_2" x="0px" y="0px" width="100%" height="100%" viewBox="0 0 612 360" enable-background="new 0 0 612 360" xml:space="preserve" ><rect id="svgEditorBackground" x="0" y="0" width="612" height="360" style="fill: none; stroke: none;"/>
<path d="M509.0820007324219,288.39801025390625h-395.43499755859375v-184.875h16.744003295898438v84.2559814453125h16.740997314453125v-84.25599670410156h16.744003295898438v151.81199645996094h-16.744003295898438v-50.66499328613281h-16.740997314453125v67.09800720214844h378.69000244140625v16.6300048828125Z" fill="white"/>
<path d="M231.03700256347656,107.697998046875v147.63699340820312h-16.744003295898438v-50.66499328613281h-16.740997314453125v50.66499328613281h-16.744003295898438v-147.63699340820312l4.141998291015625,-4.1750030517578125h41.75999450683594l4.3270111083984375,4.1750030517578125ZM214.29299926757812,120.41200256347656h-16.740997314453125v67.36698913574219h16.740997314453125v-67.36698913574219Z" fill="white"/>
<path d="M281.2640075683594,187.96600341796875v-67.36299896240234h-16.739990234375v118.03398895263672h16.739990234375v-33.78300476074219h16.74200439453125v46.30500793457031l-4.32598876953125,4.365997314453125h-41.75999450683594l-4.1410064697265625,-4.365997314453125v-143.26800537109375l4.1410064697265625,-4.176002502441406h41.75999450683594l4.32598876953125,4.176002502441406v80.07501220703125h-16.74200439453125Z" fill="white"/>
<path d="M364.78399658203125,204.6699981689453v50.66499328613281h-16.743988037109375v-50.66499328613281h-16.738006591796875v50.66499328613281h-16.743988037109375v-151.81198120117188h16.743988037109375v84.25598907470703h16.738006591796875v-84.25599670410156h16.743988037109375v84.25599670410156l-8.46099853515625,8.537002563476562l8.46099853515625,8.35400390625Z" fill="white"/>
<path d="M415.20098876953125,170.89199829101562v-50.47900390625h-16.739013671875v67.36700439453125h29.157012939453125l4.32598876953125,4.363006591796875v59.0159912109375l-4.32598876953125,4.177001953125h-41.760009765625l-4.141998291015625,-4.177001953125v-29.600997924804688h16.743988037109375v16.88800048828125h16.739013671875v-33.7760009765625h-29.342010498046875l-4.141998291015625,-4.177001953125v-92.79499816894531l4.141998291015625,-4.1750030517578125h41.760009765625l4.32598876953125,4.163002014160156v63.204994201660156h-16.74298095703125Z" fill="white"/>
<path d="M102.0999984741211,71.072998046875l396.0039978027344,0.2050018310546875l0.81201171875,179.8800048828125l-4.33099365234375,4.177001953125h-41.755035400390625l-4.1409912109375,-4.177001953125v-147.635009765625h16.743988037109375v134.9219970703125h16.738006591796875v-151.11001586914062h-380.07098388671875v-16.262001037597656Z" fill="white"/>
<path d="M77.8479995727539,109.59700012207031c-16.43000030517578,0,-29.797000885009766,-13.364997863769531,-29.797000885009766,-29.795997619628906c0,-16.43000030517578,13.367000579833984,-29.795997619628906,29.797000885009766,-29.795997619628906s29.795997619628906,13.36600112915039,29.795997619628906,29.795997619628906c0,16.43000030517578,-13.366996765136719,29.795997619628906,-29.795997619628906,29.795997619628906ZM77.8479995727539,66.63500213623047c-7.260002136230469,0,-13.166000366210938,5.905998229980469,-13.166000366210938,13.166000366210938s5.905998229980469,13.166000366210938,13.166000366210938,13.166000366210938s13.166000366210938,-5.905998229980469,13.166000366210938,-13.166000366210938s-5.9069976806640625,-13.166000366210938,-13.166000366210938,-13.166000366210938Z" fill="white"/>
<path d="M534.1519775390625,309.9949951171875c-16.42999267578125,0,-29.795989990234375,-13.364990234375,-29.795989990234375,-29.795989990234375c0,-16.42999267578125,13.365997314453125,-29.796005249023438,29.795989990234375,-29.796005249023438c16.4310302734375,0,29.7969970703125,13.366012573242188,29.7969970703125,29.796005249023438c0,16.430999755859375,-13.365966796875,29.795989990234375,-29.7969970703125,29.795989990234375ZM534.1519775390625,267.03399658203125c-7.260009765625,0,-13.16497802734375,5.906005859375,-13.16497802734375,13.165008544921875c0,7.260009765625,5.905029296875,13.165985107421875,13.16497802734375,13.165985107421875s13.166015625,-5.906005859375,13.166015625,-13.166015625c0,-7.25897216796875,-5.906005859375,-13.16497802734375,-13.166015625,-13.16497802734375Z" fill="white"/>
</svg>