<?xml version="1.0" standalone="no"?><!DOCTYPE svg PUBLIC "-//W3C//DTD SVG 1.1//EN" "http://www.w3.org/Graphics/SVG/1.1/DTD/svg11.dtd"><svg width="100%" height="100%" viewBox="0 0 428 428" version="1.1" xmlns="http://www.w3.org/2000/svg" xmlns:xlink="http://www.w3.org/1999/xlink" xml:space="preserve" style="fill-rule:evenodd;clip-rule:evenodd;stroke-linejoin:round;stroke-miterlimit:1.41421;"><clipPath id="_clip1"><rect id="Artboard1" x="0" y="0" width="427.548" height="427.548"/></clipPath><g clip-path="url(#_clip1)"><path d="M427.536,0l-11.77,0c0,0 3.41,21.808 -15.47,21.819c-26.96,0.016 -330.33,0.02 -357.29,0c-7.22,-0.1 -14.54,2.63 -19.66,7.78c-6.91,6.39 -10.11,16.61 -7.94,25.79c1.72,8.51 7.74,16.01 15.72,19.47c5.54,2.65 11.84,2.52 17.83,2.48c50,-0.01 229.647,-0.01 279.647,0c6.98,-0.36 13.65,4.53 15.67,11.16c2.58,7.31 -1.32,16.06 -8.32,19.28c-4.75,2.45 -10.23,1.63 -15.37,1.76c-49.34,0.08 -228.327,-0.25 -277.667,-0.09c-8.27,-0.18 -16.53,3.54 -21.78,9.94c-5.4,6.6 -7.8,15.79 -5.6,24.11c1.93,8.93 8.76,16.47 17.29,19.62c5.45,2.13 11.39,1.8 17.13,1.83c58.39,0.04 145.804,-0.21 204.184,-0.08c6.84,0.3 12.98,5.65 14.52,12.28c2.65,9.18 -5.08,19.58 -14.63,19.71c-60.37,0.13 -149.754,-0.11 -210.124,-0.06c-7.5,-0.09 -15.17,2.52 -20.56,7.85c-5.14,4.79 -8.13,11.61 -8.61,18.58c-0.46,9.68 4.43,19.51 12.67,24.69c5.44,3.64 12.14,4.78 18.58,4.66c54.67,0.02 82.333,-0.2 137.003,-0.14c4.46,0.14 9.24,-0.64 13.36,1.51c6.62,3.05 10.62,11.04 8.73,18.15c-1.22,5.09 -5.04,9.47 -9.93,11.35c-4.2,1.65 -8.78,0.9 -13.18,1.05c-52.67,0.08 -78.333,-0.18 -131.003,-0.12c-6.74,0 -13.85,-0.34 -20.09,2.66c-7.76,3.49 -13.67,10.78 -15.42,19.11c-2.32,9.4 1.07,19.83 8.12,26.39c4.97,4.51 11.56,7.38 18.33,7.33c42.66,0.17 37.069,-0.07 79.739,-0.08c3.34,-0.07 6.79,0.19 9.81,1.77c5.81,2.71 9.54,9.21 8.95,15.6c-0.34,7.95 -7.63,15.01 -15.65,14.8c-43.37,0.08 -78.479,-0.27 -121.849,-0.08c-7.16,0.15 -8.82,12.24 -1.92,11.95c41,0.28 73.739,-0.09 114.739,-0.08c5.32,-0.07 10.74,0.38 15.94,-1c7.69,-2.05 14.39,-7.58 17.73,-14.81c3.73,-7.56 3.62,-16.82 -0.18,-24.32c-4.05,-8.12 -12.31,-14.26 -21.42,-15.05c-19.73,-0.43 -60.869,-0.57 -85.849,-0.51c-8.75,0.38 -16.28,-8.24 -15.51,-16.8c0.25,-8.41 8.07,-15.35 16.38,-15.21c8.39,0.57 16.82,0.53 25.22,0.01c7.64,0.11 105.27,0.46 112.91,0.45c4.01,-0.05 8,-0.52 12.01,-0.34c6.93,0.55 -33.997,-0.19 -2.937,-0.18c9.73,0.21 19.07,-5.7 23.66,-14.17c2.01,-3.5 2.84,-7.49 3.56,-11.41c-0.01,-1.45 -0.02,-2.9 -0.04,-4.34c-1.06,-8.47 -5.63,-16.53 -12.97,-21.07c-4.8,-3.08 -10.57,-4.45 -16.24,-4.32c-57.98,0.13 -88.973,-0.23 -146.953,-0.07c-7.81,-0.41 -14.55,-7.55 -14.62,-15.36c-0.33,-6.35 3.57,-12.69 9.42,-15.2c3.42,-1.85 7.4,-1.28 11.12,-1.31c58.66,0.08 146.354,-0.22 205.024,-0.1c9.39,0.29 18.91,-4.33 24.05,-12.26c5.99,-8.71 6.28,-20.92 0.68,-29.89c-4.84,-8.17 -14.08,-13.27 -23.54,-13.36c-16.39,-0.15 -182.604,-0.09 -211.294,-0.08c-8.33,0.17 -15.67,-7.59 -15.47,-15.85c-0.21,-7.25 5.34,-14.19 12.42,-15.69c3.31,-0.83 6.75,-0.52 10.12,-0.56c27.554,0.017 257.205,0.003 279.657,0.02c8.99,0.34 17.95,-4.3 23.03,-11.69c4.92,-6.83 6.25,-15.96 3.83,-23.99c-3.28,-11.3 -14.42,-19.73 -26.22,-19.65c-52.56,-0.09 -234.777,-0.02 -287.337,-0.04c-8.48,0 -15.95,-7.94 -15.49,-16.41c-0.03,-8.19 7.19,-15.57 15.4,-15.64c27.4,-0.06 331.2,0.01 358.6,-0.03c10.11,-0.2 19.82,-6.41 24.14,-15.57c3.349,-7.101 2.98,-17.949 2.98,-17.949l0,0Z" style="fill:#47bd96;fill-rule:nonzero;"/></g></svg>